<svg width="348" height="210" viewBox="0 0 348 210" fill="none" xmlns="http://www.w3.org/2000/svg">
    <g clip-path="url(#clip0_1771_7658)">
        <path fill-rule="evenodd" clip-rule="evenodd"
            d="M116.48 24.85H281.4C291.57 24.85 299.9 33.02 299.9 43V157.89C299.9 167.87 291.58 176.04 281.4 176.04H116.48C106.31 176.04 97.9805 167.87 97.9805 157.89V43C97.9805 33.02 106.3 24.85 116.48 24.85Z"
            fill="#272453" />
        <path fill-rule="evenodd" clip-rule="evenodd"
            d="M283.441 30.97C284.901 30.97 286.091 32.16 286.091 33.62C286.091 35.08 284.901 36.27 283.441 36.27C281.981 36.27 280.791 35.08 280.791 33.62C280.791 32.16 281.981 30.97 283.441 30.97Z"
            fill="#00B4D2" />
        <path fill-rule="evenodd" clip-rule="evenodd"
            d="M275.511 30.97C276.971 30.97 278.161 32.16 278.161 33.62C278.161 35.08 276.971 36.27 275.511 36.27C274.051 36.27 272.861 35.08 272.861 33.62C272.861 32.16 274.051 30.97 275.511 30.97Z"
            fill="#00B4D2" />
        <path fill-rule="evenodd" clip-rule="evenodd"
            d="M267.571 30.97C269.031 30.97 270.221 32.16 270.221 33.62C270.221 35.08 269.031 36.27 267.571 36.27C266.111 36.27 264.921 35.08 264.921 33.62C264.921 32.16 266.111 30.97 267.571 30.97Z"
            fill="#00B4D2" />
        <path fill-rule="evenodd" clip-rule="evenodd"
            d="M294.41 40.27C295.05 42.05 295.41 43.96 295.41 45.95V154.94C295.41 164.41 287.44 172.16 277.7 172.16H119.76C110.02 172.16 102.04 164.41 102.04 154.94V45.95C102.04 43.96 102.39 42.05 103.04 40.27H294.41Z"
            fill="white" />
        <g style="mix-blend-mode:multiply" opacity="0.65">
            <g style="mix-blend-mode:multiply" opacity="0.65">
                <path
                    d="M191.35 185.82C251.306 185.82 299.91 183.335 299.91 180.27C299.91 177.205 251.306 174.72 191.35 174.72C131.394 174.72 82.79 177.205 82.79 180.27C82.79 183.335 131.394 185.82 191.35 185.82Z"
                    fill="#DCE7F5" />
            </g>
            <g style="mix-blend-mode:multiply" opacity="0.65">
                <path
                    d="M191.35 182.95C247.71 182.95 293.4 181.75 293.4 180.27C293.4 178.79 247.71 177.59 191.35 177.59C134.989 177.59 89.2998 178.79 89.2998 180.27C89.2998 181.75 134.989 182.95 191.35 182.95Z"
                    fill="#DCE7F5" />
            </g>
        </g>
        <g style="mix-blend-mode:multiply" opacity="0.65">
            <g style="mix-blend-mode:multiply" opacity="0.65">
                <path fill-rule="evenodd" clip-rule="evenodd"
                    d="M69.4603 191.77C86.2403 191.77 99.8503 190.57 99.8503 189.09C99.8503 187.61 86.2403 186.41 69.4603 186.41C52.6803 186.41 39.0703 187.61 39.0703 189.09C39.0703 190.57 52.6803 191.77 69.4603 191.77Z"
                    fill="#DCE7F5" />
            </g>
        </g>
        <path
            d="M82.7508 91.82C85.3808 93.71 86.9708 96 86.3108 96.92C85.6508 97.84 76.1208 90.99 76.7808 90.06C77.4408 89.13 80.1208 89.92 82.7508 91.81V91.82Z"
            fill="#F9AF1C" />
        <path
            d="M75.6399 150.31C75.6399 172.03 73.1498 189.64 70.0898 189.64C67.0298 189.64 64.5399 172.03 64.5399 150.31C64.5399 134.02 62.1599 114.16 65.2599 108.18C66.2899 106.19 67.3498 110.97 70.0898 110.97C72.4798 110.97 75.0499 104.51 76.1099 106.05C79.8999 111.56 75.6399 133.33 75.6399 150.31Z"
            fill="#272453" />
        <path
            d="M60.1698 150.67C57.6498 172.25 53.1398 189.45 50.0998 189.09C47.0598 188.73 46.6298 170.96 49.1498 149.38C51.0398 133.2 50.9798 113.19 54.7498 107.62C56.0098 105.76 56.5098 110.64 59.2198 110.95C61.5898 111.23 64.8998 105.11 65.7698 106.76C68.8898 112.67 62.1398 133.8 60.1698 150.66V150.67Z"
            fill="#272453" />
        <path fill-rule="evenodd" clip-rule="evenodd"
            d="M73.5704 80.78C74.6104 84.15 74.8204 86.11 79.0704 89.05C78.6304 91.45 78.2704 92.5 77.0504 94.12C74.0104 92.02 71.1204 91.12 70.7704 89.89C70.3104 88.29 73.0004 86.18 73.5804 80.78H73.5704Z"
            fill="#FEFAFD" />
        <path fill-rule="evenodd" clip-rule="evenodd"
            d="M74.6002 63.4C77.2402 66.36 77.9103 68.67 78.1603 72.26C78.5803 78.21 78.0303 83.76 77.8003 89.09C77.7303 90.8 77.7102 92.48 77.7402 94.15C77.7802 97.1 77.8202 105.38 78.1102 108.38C74.6302 113.93 58.7402 114.5 52.3702 108.7C54.2102 98.15 46.9302 84.75 48.2702 72C48.4402 70.42 50.0302 69.22 51.0202 67.82C53.0202 64.98 58.3902 60.5 61.4302 58.3C67.1802 58.99 70.6802 59.02 74.6002 63.4Z"
            fill="#00A298" />
        <g style="mix-blend-mode:multiply" opacity="0.55">
            <path fill-rule="evenodd" clip-rule="evenodd"
                d="M50.4804 69.17C49.8904 70.18 49.0604 71.04 48.9504 72.17C48.6704 74.94 48.4504 77.9 48.7704 80.92C49.2604 85.56 50.4204 90.33 51.3804 94.72C52.6004 100.32 53.2204 105.37 52.3804 108.7C52.6904 108.98 53.0204 109.24 53.3604 109.49C54.1604 106.04 54.7804 104.56 55.6204 100.99C61.1404 103.13 70.7804 101.93 77.8004 98.78C77.7604 95.89 76.9704 97.04 77.0504 94.12C73.1704 94.4 60.8804 96.62 57.1704 93.17C55.1304 91.27 57.9904 80.19 58.4904 76.46C58.7404 74.58 56.9504 72.86 55.9904 70.82L54.2204 66.74C53.0404 64.02 54.0304 66.25 50.4904 69.17H50.4804Z"
                fill="#00A298" />
        </g>
        <path fill-rule="evenodd" clip-rule="evenodd"
            d="M74.6005 63.4C77.2405 66.36 77.9105 68.67 78.1605 72.26C78.5805 78.21 78.0305 83.76 77.8005 89.09C77.7305 90.8 77.7105 92.48 77.7405 94.15C77.7605 95.8 77.8805 99.04 77.9505 102.18C78.0605 107.67 78.7205 109.86 79.7805 115.13C80.1505 116.96 80.4205 118.91 80.3905 121.06C80.2705 132.08 78.9005 143.98 77.3605 155.74C76.3405 155.93 75.3105 156.06 74.2705 156.17C76.1505 141.57 73.6605 82.56 73.1505 75.51C72.6405 68.46 68.7205 59.5 67.9305 59.26C70.3305 59.86 72.4005 60.95 74.5905 63.41L74.6005 63.4ZM47.2305 156.11C47.6805 151.17 48.0705 146.27 48.4005 141.35C48.8405 134.63 48.4305 127.69 49.2405 120.78C49.6805 117.06 50.6305 104.17 50.7205 101.36C50.8005 98.55 47.0305 83.78 48.2705 72C48.4405 70.42 49.6105 68.28 50.6005 66.88C52.6005 64.04 58.3905 60.5 61.4405 58.3C63.6005 58.56 65.4405 58.73 67.1005 59.06C64.5005 58.66 62.0405 59.94 62.1505 60.21C64.6905 66.6 65.2605 69.33 65.7905 78.81C67.3705 107.3 62.3405 123.88 56.9005 156.25C52.6905 156.49 50.5505 156.36 47.2505 156.11H47.2305Z"
            fill="#FEFAFD" />
        <path opacity="0.1" fill-rule="evenodd" clip-rule="evenodd"
            d="M48.6205 80.81C48.6205 84.1 49.6205 87.61 50.4205 90.77C51.6605 96.23 49.6805 117.05 49.2405 120.77C48.4305 127.68 48.8505 134.62 48.4005 141.34C48.0705 146.26 47.6805 151.16 47.2305 156.1L47.6805 156.13C48.3605 153.86 49.0405 151.49 49.6705 149.09C52.6605 137.68 51.6005 132.27 52.8805 122.08C53.8305 114.47 56.1805 110.93 56.3505 102.8C58.8605 103.55 62.4205 103.07 65.5805 101.91C65.9005 97.71 65.9805 99.29 65.9705 94.71C62.5705 94.99 56.5405 93.43 54.9505 91.95C52.9105 90.05 57.9705 80.18 58.4605 76.45C59.7005 67.06 48.5805 75.49 48.5905 80.8L48.6205 80.81ZM76.4305 99.35C76.9005 99.17 77.3505 98.97 77.8005 98.77C77.7605 95.88 77.7005 92.95 77.7805 90.04C77.3305 90.07 76.7705 90.08 76.1205 90.07C76.2705 93.07 76.3705 96.18 76.4305 99.35Z"
            fill="#272453" />
        <path
            d="M63.6105 51.75L62.7705 59.71L67.1605 63.08C67.5805 63.48 68.2705 63.15 68.2405 62.57L67.6705 53.63L63.6105 51.74V51.75Z"
            fill="#F9AF1C" />
        <path
            d="M65.5505 55.34C65.5505 55.34 63.7805 52.35 61.1905 52.17C58.5905 51.99 55.8205 54.79 54.7105 49.82C53.6005 44.85 59.4505 43.56 59.3005 41.74C59.1505 39.92 59.8205 37.96 61.1005 37.33C62.3805 36.7 63.3605 38.56 66.0705 36.74C68.2505 35.27 72.1105 36.69 75.4405 39.27C78.4905 41.64 77.6805 41.27 76.3605 45.06C75.0405 48.86 78.6405 47.79 78.2905 50.93C77.9405 54.07 74.6905 55.71 72.5905 55.36C70.4905 55.01 65.5605 55.32 65.5605 55.32L65.5505 55.34Z"
            fill="#272453" />
        <path
            d="M67.921 39.87C63.831 39.85 62.011 43.46 62.241 48.04C62.471 52.56 64.721 56.25 67.831 56.27C70.941 56.29 73.241 52.62 73.511 48.1C73.791 43.52 72.001 39.89 67.921 39.87Z"
            fill="#F9AF1C" />
        <path
            d="M69.6905 37.64C69.6905 37.64 61.5805 40.93 61.5705 42.52C61.5605 44.11 62.0205 46.64 62.0205 46.64L62.1905 52.39L64.8605 53.68C64.8605 53.68 65.0405 45.94 66.1805 46.66C67.3205 47.38 68.5605 45.11 69.6505 44.93C75.4505 43.31 74.8505 42.19 75.3305 41.03C75.8105 39.87 74.1805 39.07 74.1805 39.07L69.6905 37.63V37.64Z"
            fill="#272453" />
        <path
            d="M72.2807 47.53C72.5707 48.7 72.4207 49.66 72.3907 50.81C72.3007 51 72.1607 51.06 72.0807 51.08C71.5207 51.24 70.9307 50.93 70.4707 50.89C70.7607 50.64 71.2807 50.69 71.6207 50.56C71.8607 50.51 71.8407 50.38 71.7307 50.56C71.6807 50.66 71.7307 50.75 71.6807 50.65C71.1807 49.61 71.4607 48.33 72.2707 47.53H72.2807Z"
            fill="#00A298" />
        <path
            d="M64.5107 47.29C64.3707 48.05 64.6507 48.73 65.1307 48.82C65.6107 48.91 66.1007 48.36 66.2407 47.6C66.3807 46.84 66.1007 46.16 65.6207 46.07C65.1407 45.98 64.6507 46.53 64.5107 47.29Z"
            fill="#F9AF1C" />
        <path
            d="M69.3103 49.34C69.9951 49.34 70.5503 48.7848 70.5503 48.1C70.5503 47.4152 69.9951 46.86 69.3103 46.86C68.6255 46.86 68.0703 47.4152 68.0703 48.1C68.0703 48.7848 68.6255 49.34 69.3103 49.34Z"
            stroke="#00A298" stroke-miterlimit="10" />
        <path
            d="M73.1609 50.26C73.8457 50.26 74.4009 49.7048 74.4009 49.02C74.4009 48.3352 73.8457 47.78 73.1609 47.78C72.4761 47.78 71.9209 48.3352 71.9209 49.02C71.9209 49.7048 72.4761 50.26 73.1609 50.26Z"
            stroke="#00A298" stroke-miterlimit="10" />
        <path
            d="M68.2708 47.42C67.4008 47.21 66.4808 47.1 65.6908 46.74C65.5408 46.62 65.0008 46.15 65.1208 45.88C65.8308 45.64 66.3608 45.85 66.8608 46.29C67.3608 46.61 67.8408 46.96 68.3108 47.34L68.2708 47.43V47.42Z"
            fill="#00A298" />
        <path fill-rule="evenodd" clip-rule="evenodd"
            d="M60.2503 74.18C53.4803 80.39 45.9503 91.25 58.1203 92.31C62.9703 92.73 67.8203 92.52 71.8903 91.91C73.9103 91.61 73.0703 95.54 72.4203 95.79C64.1703 98.89 54.2103 101.79 48.0703 99.27C32.5603 92.92 44.7903 73.31 52.1803 65.1C54.6903 62.87 58.5303 63.09 60.7603 65.6C62.9903 68.11 62.7703 71.95 60.2603 74.18H60.2503Z"
            fill="#FEFAFD" />
        <path opacity="0.2"
            d="M83.7689 162.236L83.2597 161.727C80.9244 159.392 77.1381 159.392 74.8028 161.727L74.2936 162.236C71.9583 164.572 71.9583 168.358 74.2936 170.693L74.8028 171.202C77.1381 173.538 80.9244 173.538 83.2598 171.202L83.7689 170.693C86.1042 168.358 86.1042 164.572 83.7689 162.236Z"
            fill="#A67CB5" />
        <path
            d="M70.4603 48.45C70.0103 47.89 70.7703 47.16 71.3703 47.2C71.9703 47.16 72.7303 47.89 72.2803 48.45C71.9303 48.14 71.7203 48.22 71.3703 48.2C71.0203 48.21 70.8103 48.14 70.4603 48.45Z"
            fill="#00A298" />
        <path
            d="M62.3108 89.58C68.8608 91.99 75.1808 88.55 76.0908 91.66C77.0008 94.77 72.2208 96.03 65.5208 97.99C58.8208 99.95 49.8508 99.59 49.8508 99.59C49.8508 99.59 49.3808 84.82 62.3108 89.58Z"
            fill="#FEFAFD" />
        <path
            d="M61.43 58.29C59.9 59.96 58.2 61.4 56.44 62.81L56.51 61.45C59.23 63.53 61.8 65.79 64.19 68.25C64.34 68.41 64.4 68.63 64.36 68.83C64.14 69.89 63.89 70.95 63.59 72L63.1 71.58C63.79 71.49 64.48 71.43 65.19 71.4C64.57 71.73 63.95 72.05 63.31 72.32C63.03 72.44 62.78 72.18 62.82 71.9C62.79 70.81 62.8 69.72 62.85 68.64L63.11 69.31C60.35 67.3 57.77 65.08 55.33 62.7C54.94 62.34 55 61.67 55.46 61.39C57.39 60.23 59.34 59.14 61.43 58.29Z"
            fill="#00A298" />
        <path
            d="M68.4707 59.25C70.3307 59.84 72.1407 60.56 73.9107 61.35C74.1107 61.44 74.2107 61.65 74.1607 61.85C73.8607 63.64 73.5107 65.42 73.0807 67.18L73.0307 66.87C73.5307 67.78 74.0107 68.71 74.4607 69.64C74.5807 69.8 74.4507 70.04 74.2507 70.01C73.5607 69.93 72.8707 69.88 72.1807 69.76C72.8707 69.65 73.5607 69.6 74.2507 69.51L74.0407 69.88C73.5407 69.04 72.4007 67.87 72.2207 66.99C72.5007 65.2 72.8607 63.42 73.2607 61.65L73.5107 62.15C71.7907 61.26 70.1007 60.3 68.4707 59.22V59.25Z"
            fill="#00A298" />
        <path fill-rule="evenodd" clip-rule="evenodd"
            d="M92.66 77.47L72.47 78.5C71.64 78.54 70.96 79.26 70.96 80.09V96C70.96 96.83 71.64 97.48 72.47 97.43L92.66 96.4C93.49 96.36 94.17 95.64 94.17 94.81V78.9C94.17 78.07 93.49 77.42 92.66 77.47Z"
            fill="#363A68" />
        <path fill-rule="evenodd" clip-rule="evenodd"
            d="M92.7003 78.09L73.0704 79.09C72.2704 79.13 71.6104 79.82 71.6104 80.63V96.05C71.6104 96.86 72.2704 97.48 73.0704 97.44L92.7003 96.44C93.5003 96.4 94.1604 95.71 94.1604 94.9V79.48C94.1604 78.67 93.5003 78.05 92.7003 78.09Z"
            fill="#272453" />
        <path
            d="M72.5802 89.57C74.7002 89.41 76.5502 91.18 76.7302 93.52C76.9102 95.86 69.2402 96.43 69.0702 94.09C68.9002 91.75 70.4702 89.73 72.5802 89.57Z"
            fill="#F9AF1C" />
        <path opacity="0.2"
            d="M260.429 71.2382L259.644 70.4533C256.11 66.919 250.38 66.919 246.846 70.4533L246.061 71.2382C242.527 74.7724 242.527 80.5026 246.061 84.0368L246.846 84.8217C250.38 88.3559 256.11 88.3559 259.644 84.8217L260.429 84.0368C263.964 80.5026 263.964 74.7724 260.429 71.2382Z"
            fill="#272453" />
        <path
            d="M276.07 65.57H250.76C244.309 65.57 239.08 70.7993 239.08 77.25V78.68C239.08 85.1307 244.309 90.36 250.76 90.36H276.07C282.521 90.36 287.75 85.1307 287.75 78.68V77.25C287.75 70.7993 282.521 65.57 276.07 65.57Z"
            fill="#00A298" />
        <path
            d="M271.041 70.03H257.091C256.29 70.03 255.641 70.6792 255.641 71.48V71.65C255.641 72.4508 256.29 73.1 257.091 73.1H271.041C271.841 73.1 272.491 72.4508 272.491 71.65V71.48C272.491 70.6792 271.841 70.03 271.041 70.03Z"
            fill="white" />
        <path
            d="M279.971 76.37H257.091C256.29 76.37 255.641 77.0192 255.641 77.82V77.99C255.641 78.7908 256.29 79.44 257.091 79.44H279.971C280.771 79.44 281.421 78.7908 281.421 77.99V77.82C281.421 77.0192 280.771 76.37 279.971 76.37Z"
            fill="white" />
        <path
            d="M279.971 82.7H257.091C256.29 82.7 255.641 83.3492 255.641 84.15V84.32C255.641 85.1208 256.29 85.77 257.091 85.77H279.971C280.771 85.77 281.421 85.1208 281.421 84.32V84.15C281.421 83.3492 280.771 82.7 279.971 82.7Z"
            fill="white" />
        <path opacity="0.1"
            d="M276.07 94.21H250.76C244.309 94.21 239.08 99.4393 239.08 105.89V107.32C239.08 113.771 244.309 119 250.76 119H276.07C282.521 119 287.75 113.771 287.75 107.32V105.89C287.75 99.4393 282.521 94.21 276.07 94.21Z"
            fill="#272453" />
        <path
            d="M271.041 98.67H257.091C256.29 98.67 255.641 99.3192 255.641 100.12V100.29C255.641 101.091 256.29 101.74 257.091 101.74H271.041C271.841 101.74 272.491 101.091 272.491 100.29V100.12C272.491 99.3192 271.841 98.67 271.041 98.67Z"
            fill="white" />
        <path
            d="M279.971 105.01H257.091C256.29 105.01 255.641 105.659 255.641 106.46V106.63C255.641 107.431 256.29 108.08 257.091 108.08H279.971C280.771 108.08 281.421 107.431 281.421 106.63V106.46C281.421 105.659 280.771 105.01 279.971 105.01Z"
            fill="white" />
        <path
            d="M279.971 111.34H257.091C256.29 111.34 255.641 111.989 255.641 112.79V112.96C255.641 113.761 256.29 114.41 257.091 114.41H279.971C280.771 114.41 281.421 113.761 281.421 112.96V112.79C281.421 111.989 280.771 111.34 279.971 111.34Z"
            fill="white" />
        <path
            d="M250.751 98.54C248.571 101.47 246.731 101.54 245.781 107.19C244.831 112.84 246.731 117.38 249.371 117.71C252.011 118.04 255.551 114.54 256.101 114.33C256.651 114.12 265.361 114.8 263.941 108.18C262.521 101.56 256.801 102.05 256.401 100.79C256.001 99.53 255.131 99.99 255.131 99.99C255.131 99.99 252.921 95.61 250.741 98.53L250.751 98.54Z"
            fill="#872075" />
        <path
            d="M247.971 116.56C247.941 117.83 247.751 121.33 247.651 121.54C247.111 122.65 247.161 122.61 246.251 121.8C245.561 121.19 245.561 119.02 246.171 116C246.781 112.98 247.551 110.7 248.461 110.88C249.371 111.06 248.051 113.48 247.981 116.55L247.971 116.56Z"
            fill="#F49B1E" />
        <path
            d="M258.021 122.58C256.981 127 256.371 129.02 255.561 129.02C254.751 129.02 255.751 132.77 255.751 127.27C255.751 121.77 257.211 110.24 257.211 110.24C257.211 110.24 260.061 113.85 258.011 122.57L258.021 122.58Z"
            fill="#F49B1E" />
        <path
            d="M252.001 148.13C252.001 158.09 252.511 167.12 251.621 170C251.411 170.69 250.981 170.47 250.601 170.47C250.161 170.47 250.781 169.95 250.521 169.01C249.661 165.8 248.801 157.67 248.801 148.14C248.801 135.8 243.331 127.67 250.751 127.67C258.171 127.67 252.001 135.81 252.001 148.14V148.13Z"
            fill="#F49B1E" />
        <path
            d="M256.421 148.13C256.421 157.54 255.971 165.6 255.141 168.88C254.881 169.9 254.051 170.29 254.051 170.29C254.051 170.29 253.301 160.46 253.301 148.12C253.301 135.78 247.641 126.27 254.631 126.27C261.621 126.27 256.421 135.78 256.421 148.12V148.13Z"
            fill="#F49B1E" />
        <path
            d="M248.541 120.25C248.621 122.75 248.151 125.04 248.151 125.04H257.391C257.391 125.04 256.061 122.78 256.671 119.4C257.241 116.24 257.581 115.22 257.101 113.37C256.621 111.52 257.221 110 257.071 109.73C256.271 109.52 255.561 109.16 254.711 108.9C252.961 108.36 252.121 108.78 252.121 108.78C252.121 108.78 249.551 109.62 247.951 110.1C247.041 111.68 248.431 117.11 248.531 120.24L248.541 120.25Z"
            fill="#DCE7F5" />
        <path
            d="M252.621 109.06C252.621 109.06 253.191 109.48 253.901 109.42C253.901 109.18 253.911 108.96 253.941 108.77C253.471 108.72 252.881 108.77 252.621 109.06Z"
            fill="#872075" />
        <path
            d="M256.7 169.23C258.22 169.16 259.46 169.54 259.49 170.08C259.52 170.62 254.02 170.85 254 170.32C253.98 169.79 255.19 169.3 256.7 169.24V169.23Z"
            fill="#872075" />
        <path
            d="M248.891 169.38C250.411 169.31 251.651 169.69 251.681 170.23C251.711 170.77 246.211 171 246.191 170.47C246.171 169.94 247.381 169.45 248.891 169.39V169.38Z"
            fill="#872075" />
        <path
            d="M256.15 109.49C256.15 109.49 256.15 109.46 256.15 109.45C256.15 109.45 254.63 108.92 254.29 107.92C253.75 106.32 254.36 105.17 254.36 105.17H251.9C251.9 105.17 252.51 106.32 251.97 107.92C251.63 108.92 250.11 109.45 250.11 109.45C250.11 109.47 250.11 109.48 250.11 109.49C250.17 110.15 251.49 110.68 253.12 110.68C254.75 110.68 256.08 110.15 256.13 109.49H256.15Z"
            fill="#F49B1E" />
        <path
            d="M253.131 98.41C251.411 98.41 250.661 100.11 250.761 102.25C250.871 104.37 251.821 106.09 253.131 106.09C254.441 106.09 255.391 104.37 255.501 102.25C255.611 100.11 254.851 98.41 253.131 98.41Z"
            fill="#F49B1E" />
        <path d="M252.24 104.37C252.24 104.65 252.63 104.87 253.12 104.87C253.61 104.87 254 104.65 254 104.37H252.24Z"
            fill="#872075" />
        <path
            d="M255.28 102.32C255.19 102.67 255.28 103 255.51 103.06C255.74 103.12 255.98 102.88 256.08 102.54C256.17 102.19 256.081 101.86 255.851 101.8C255.631 101.74 255.38 101.98 255.28 102.32Z"
            fill="#F49B1E" />
        <path
            d="M251.351 102.59C250.901 102.24 251.441 101.61 251.891 101.64C252.341 101.6 252.881 102.23 252.431 102.59C252.131 102.43 252.051 102.59 251.891 102.64C251.731 102.58 251.651 102.43 251.351 102.59Z"
            fill="#872075" />
        <path
            d="M252.77 103.68C252.79 103.74 252.81 103.82 252.85 103.83C252.88 103.82 252.85 103.77 252.89 103.75C253.07 103.65 253.04 103.58 253.34 103.59C253.39 103.6 253.45 103.54 253.28 103.58C253.09 103.69 253.13 103.79 253.1 103.75C253.07 103.72 253.03 103.62 252.98 103.53C252.44 102.25 253.65 100.99 254.8 102.11C254.83 102.13 254.86 102.2 254.91 102.14C254.98 102.2 254.88 102.33 254.8 102.35C254.51 102.48 254.18 102.47 253.91 102.6C253.81 102.78 253.81 102.98 253.83 103.29L253.82 103.25C253.85 103.39 253.88 103.52 253.87 103.72C253.86 103.89 253.8 104.11 253.58 104.21C253.3 104.3 253.23 104.18 253.17 104.17C253.27 104.17 253.17 104.14 253.13 104.14C252.86 104.14 252.47 103.99 252.77 103.68Z"
            fill="#872075" />
        <path
            d="M250.321 102.88C250.461 103.21 250.741 103.41 250.951 103.32C251.161 103.23 251.221 102.89 251.081 102.56C250.941 102.23 250.661 102.03 250.451 102.12C250.241 102.21 250.181 102.55 250.321 102.88Z"
            fill="#F49B1E" />
        <path
            d="M252.45 97.56C249.54 97.61 250.45 102.12 250.45 102.12C250.45 102.12 251.8 102.22 253.2 100.61C254.6 99 254.71 98.7 254.55 98.12C254.39 97.54 253.38 97.46 252.45 97.56Z"
            fill="#872075" />
        <path
            d="M253.461 99.44C253.461 99.44 253.19 99.6 254.2 100.55C255.21 101.5 255.991 101.79 255.991 101.79C255.991 101.79 256.24 101.36 256.4 100.79C256.67 99.84 256.701 98.52 254.941 98.19C254.131 98.04 253.461 99.44 253.461 99.44Z"
            fill="#872075" />
        <path
            d="M254.46 108.23C254.92 108.22 255.55 108.15 255.86 108.62C256.02 109.07 255.97 109.45 255.87 109.87C255.06 112.78 250.29 112.41 250.66 109.16C250.66 108.69 251.24 108.46 251.62 108.5C251.46 108.68 251.3 108.99 251.4 109.16V109.02C252.33 110.32 253.87 110.03 254.78 108.96C254.87 108.83 254.86 108.87 254.92 109.02C254.97 109.1 254.96 109.07 254.98 109.09C254.98 108.84 254.63 108.55 254.46 108.23Z"
            fill="#A67CB5" />
        <path
            d="M249.181 114.79L248.191 116.91C248.191 116.91 247.991 115.07 248.581 113.67C248.301 113.72 247.931 113.73 247.121 113.67C246.311 113.61 246.491 113.64 246.491 113.64C246.491 113.64 247.241 110.06 247.591 110.09C247.941 110.12 249.171 109.74 249.171 109.74L249.621 112.07L249.171 114.79H249.181Z"
            fill="#DCE7F5" />
        <path
            d="M255.951 114.48L256.811 115.11L256.541 113.36C256.541 113.36 257.191 113.42 258.001 113.36C258.811 113.3 258.991 113.36 258.991 113.36C258.991 113.36 257.881 109.76 257.531 109.78C257.181 109.8 256.161 109.44 256.161 109.44L255.501 111.76L255.951 114.48Z"
            fill="#DCE7F5" />
        <path
            d="M250.751 68.81C248.571 71.74 246.731 71.81 245.781 77.46C244.831 83.11 246.731 87.65 249.371 87.98C252.011 88.31 255.551 84.81 256.101 84.6C256.651 84.39 265.361 85.07 263.941 78.45C262.521 71.83 256.801 72.32 256.401 71.06C256.001 69.8 255.131 70.26 255.131 70.26C255.131 70.26 252.921 65.88 250.741 68.8L250.751 68.81Z"
            fill="#872075" />
        <path
            d="M247.971 86.82C247.941 88.09 247.751 91.59 247.651 91.8C247.111 92.91 247.161 92.87 246.251 92.06C245.561 91.45 245.561 89.28 246.171 86.26C246.781 83.24 247.551 80.96 248.461 81.14C249.371 81.32 248.051 83.74 247.981 86.81L247.971 86.82Z"
            fill="#F49B1E" />
        <path
            d="M258.021 92.84C256.981 97.26 256.371 99.28 255.561 99.28C254.751 99.28 255.751 103.03 255.751 97.53C255.751 92.03 257.211 80.5 257.211 80.5C257.211 80.5 260.061 84.11 258.011 92.83L258.021 92.84Z"
            fill="#F49B1E" />
        <path
            d="M252.001 118.4C252.001 128.36 252.511 137.39 251.621 140.27C251.411 140.96 250.981 140.74 250.601 140.74C250.161 140.74 250.781 140.22 250.521 139.28C249.661 136.07 248.801 127.94 248.801 118.41C248.801 106.07 243.331 97.94 250.751 97.94C258.171 97.94 252.001 106.08 252.001 118.41V118.4Z"
            fill="#F49B1E" />
        <path
            d="M256.421 118.4C256.421 127.81 255.971 135.87 255.141 139.15C254.881 140.17 254.051 140.56 254.051 140.56C254.051 140.56 253.301 130.73 253.301 118.39C253.301 106.05 247.641 96.54 254.631 96.54C261.621 96.54 256.421 106.05 256.421 118.39V118.4Z"
            fill="#F49B1E" />
        <path
            d="M248.541 90.52C248.621 93.02 248.151 95.31 248.151 95.31H257.391C257.391 95.31 256.061 93.05 256.671 89.67C257.241 86.51 257.581 85.49 257.101 83.64C256.621 81.79 257.221 80.27 257.071 80C256.271 79.79 255.561 79.43 254.711 79.17C252.961 78.63 252.121 79.05 252.121 79.05C252.121 79.05 249.551 79.89 247.951 80.37C247.041 81.95 248.431 87.38 248.531 90.51L248.541 90.52Z"
            fill="#DCE7F5" />
        <path
            d="M252.621 79.33C252.621 79.33 253.191 79.75 253.901 79.69C253.901 79.45 253.911 79.23 253.941 79.04C253.471 78.99 252.881 79.04 252.621 79.33Z"
            fill="#872075" />
        <path
            d="M256.7 139.5C258.22 139.43 259.46 139.81 259.49 140.35C259.52 140.89 254.02 141.12 254 140.59C253.98 140.06 255.19 139.57 256.7 139.51V139.5Z"
            fill="#872075" />
        <path
            d="M248.891 139.64C250.411 139.57 251.651 139.95 251.681 140.49C251.711 141.03 246.211 141.26 246.191 140.73C246.171 140.2 247.381 139.71 248.891 139.65V139.64Z"
            fill="#872075" />
        <path
            d="M256.15 79.75C256.15 79.75 256.15 79.72 256.15 79.71C256.15 79.71 254.63 79.18 254.29 78.18C253.75 76.58 254.36 75.43 254.36 75.43H251.9C251.9 75.43 252.51 76.58 251.97 78.18C251.63 79.18 250.11 79.71 250.11 79.71C250.11 79.73 250.11 79.74 250.11 79.75C250.17 80.41 251.49 80.94 253.12 80.94C254.75 80.94 256.08 80.41 256.13 79.75H256.15Z"
            fill="#F49B1E" />
        <path
            d="M253.131 68.68C251.411 68.68 250.661 70.38 250.761 72.52C250.871 74.64 251.821 76.36 253.131 76.36C254.441 76.36 255.391 74.64 255.501 72.52C255.611 70.38 254.851 68.68 253.131 68.68Z"
            fill="#F49B1E" />
        <path d="M252.24 74.64C252.24 74.92 252.63 75.14 253.12 75.14C253.61 75.14 254 74.92 254 74.64H252.24Z"
            fill="#872075" />
        <path
            d="M255.28 72.59C255.19 72.94 255.28 73.27 255.51 73.33C255.74 73.39 255.98 73.15 256.08 72.81C256.17 72.46 256.081 72.13 255.851 72.07C255.631 72.01 255.38 72.25 255.28 72.59Z"
            fill="#F49B1E" />
        <path
            d="M251.351 72.86C250.901 72.51 251.441 71.88 251.891 71.91C252.341 71.87 252.881 72.5 252.431 72.86C252.131 72.7 252.051 72.86 251.891 72.91C251.731 72.85 251.651 72.7 251.351 72.86Z"
            fill="#872075" />
        <path
            d="M252.77 73.95C252.79 74.01 252.81 74.09 252.85 74.1C252.88 74.09 252.85 74.04 252.89 74.02C253.07 73.92 253.04 73.85 253.34 73.86C253.39 73.87 253.45 73.81 253.28 73.85C253.09 73.96 253.13 74.06 253.1 74.02C253.07 73.99 253.03 73.89 252.98 73.8C252.44 72.52 253.65 71.26 254.8 72.38C254.83 72.4 254.86 72.47 254.91 72.41C254.98 72.47 254.88 72.6 254.8 72.62C254.51 72.75 254.18 72.74 253.91 72.87C253.81 73.05 253.81 73.25 253.83 73.56L253.82 73.52C253.85 73.66 253.88 73.79 253.87 73.99C253.86 74.16 253.8 74.38 253.58 74.48C253.3 74.57 253.23 74.45 253.17 74.44C253.27 74.44 253.17 74.41 253.13 74.41C252.86 74.41 252.47 74.26 252.77 73.95Z"
            fill="#872075" />
        <path
            d="M250.321 73.15C250.461 73.48 250.741 73.68 250.951 73.59C251.161 73.5 251.221 73.16 251.081 72.83C250.941 72.5 250.661 72.3 250.451 72.39C250.241 72.48 250.181 72.82 250.321 73.15Z"
            fill="#F49B1E" />
        <path
            d="M252.45 67.83C249.54 67.88 250.45 72.39 250.45 72.39C250.45 72.39 251.8 72.49 253.2 70.88C254.6 69.27 254.71 68.97 254.55 68.39C254.39 67.81 253.38 67.73 252.45 67.83Z"
            fill="#872075" />
        <path
            d="M253.461 69.71C253.461 69.71 253.19 69.87 254.2 70.82C255.21 71.77 255.991 72.06 255.991 72.06C255.991 72.06 256.24 71.63 256.4 71.06C256.67 70.11 256.701 68.79 254.941 68.46C254.131 68.31 253.461 69.71 253.461 69.71Z"
            fill="#872075" />
        <path
            d="M254.46 78.5C254.92 78.49 255.55 78.42 255.86 78.89C256.02 79.34 255.97 79.72 255.87 80.14C255.06 83.05 250.29 82.68 250.66 79.43C250.66 78.96 251.24 78.73 251.62 78.77C251.46 78.95 251.3 79.26 251.4 79.43V79.29C252.33 80.59 253.87 80.3 254.78 79.23C254.87 79.1 254.86 79.14 254.92 79.29C254.97 79.37 254.96 79.34 254.98 79.36C254.98 79.11 254.63 78.82 254.46 78.5Z"
            fill="#A67CB5" />
        <path
            d="M249.181 85.06L248.191 87.18C248.191 87.18 247.991 85.34 248.581 83.94C248.301 83.99 247.931 84 247.121 83.94C246.311 83.88 246.491 83.91 246.491 83.91C246.491 83.91 247.241 80.33 247.591 80.36C247.941 80.39 249.171 80.01 249.171 80.01L249.621 82.34L249.171 85.06H249.181Z"
            fill="#DCE7F5" />
        <path
            d="M255.951 84.75L256.811 85.38L256.541 83.63C256.541 83.63 257.191 83.69 258.001 83.63C258.811 83.57 258.991 83.63 258.991 83.63C258.991 83.63 257.881 80.03 257.531 80.05C257.181 80.07 256.161 79.71 256.161 79.71L255.501 82.03L255.951 84.75Z"
            fill="#DCE7F5" />
        <path opacity="0.1"
            d="M276.07 123.7H250.76C244.309 123.7 239.08 128.929 239.08 135.38V136.81C239.08 143.261 244.309 148.49 250.76 148.49H276.07C282.521 148.49 287.75 143.261 287.75 136.81V135.38C287.75 128.929 282.521 123.7 276.07 123.7Z"
            fill="#272453" />
        <path
            d="M271.041 128.16H257.091C256.29 128.16 255.641 128.809 255.641 129.61V129.78C255.641 130.581 256.29 131.23 257.091 131.23H271.041C271.841 131.23 272.491 130.581 272.491 129.78V129.61C272.491 128.809 271.841 128.16 271.041 128.16Z"
            fill="white" />
        <path
            d="M279.971 134.5H257.091C256.29 134.5 255.641 135.149 255.641 135.95V136.12C255.641 136.921 256.29 137.57 257.091 137.57H279.971C280.771 137.57 281.421 136.921 281.421 136.12V135.95C281.421 135.149 280.771 134.5 279.971 134.5Z"
            fill="white" />
        <path
            d="M279.971 140.83H257.091C256.29 140.83 255.641 141.479 255.641 142.28V142.45C255.641 143.251 256.29 143.9 257.091 143.9H279.971C280.771 143.9 281.421 143.251 281.421 142.45V142.28C281.421 141.479 280.771 140.83 279.971 140.83Z"
            fill="white" />
        <path
            d="M250.751 128.03C248.571 130.96 246.731 131.03 245.781 136.68C244.831 142.33 246.731 146.87 249.371 147.2C252.011 147.53 255.551 144.03 256.101 143.82C256.651 143.61 265.361 144.29 263.941 137.67C262.521 131.05 256.801 131.54 256.401 130.28C256.001 129.02 255.131 129.48 255.131 129.48C255.131 129.48 252.921 125.1 250.741 128.02L250.751 128.03Z"
            fill="#872075" />
        <path
            d="M247.971 146.05C247.941 147.32 247.751 150.82 247.651 151.03C247.111 152.14 247.161 152.1 246.251 151.29C245.561 150.68 245.561 148.51 246.171 145.49C246.781 142.47 247.551 140.19 248.461 140.37C249.371 140.55 248.051 142.97 247.981 146.04L247.971 146.05Z"
            fill="#F49B1E" />
        <path
            d="M258.021 152.07C256.981 156.49 256.371 158.51 255.561 158.51C254.751 158.51 255.751 162.26 255.751 156.76C255.751 151.26 257.211 139.73 257.211 139.73C257.211 139.73 260.061 143.34 258.011 152.06L258.021 152.07Z"
            fill="#F49B1E" />
        <path
            d="M252.001 177.62C252.001 187.58 252.511 196.61 251.621 199.49C251.411 200.18 250.981 199.96 250.601 199.96C250.161 199.96 250.781 199.44 250.521 198.5C249.661 195.29 248.801 187.16 248.801 177.63C248.801 165.29 243.331 157.16 250.751 157.16C258.171 157.16 252.001 165.3 252.001 177.63V177.62Z"
            fill="#F49B1E" />
        <path
            d="M256.421 177.62C256.421 187.03 255.971 195.09 255.141 198.37C254.881 199.39 254.051 199.78 254.051 199.78C254.051 199.78 253.301 189.95 253.301 177.61C253.301 165.27 247.641 155.76 254.631 155.76C261.621 155.76 256.421 165.27 256.421 177.61V177.62Z"
            fill="#F49B1E" />
        <path
            d="M248.541 149.75C248.621 152.25 248.151 154.54 248.151 154.54H257.391C257.391 154.54 256.061 152.28 256.671 148.9C257.241 145.74 257.581 144.72 257.101 142.87C256.621 141.02 257.221 139.5 257.071 139.23C256.271 139.02 255.561 138.66 254.711 138.4C252.961 137.86 252.121 138.28 252.121 138.28C252.121 138.28 249.551 139.12 247.951 139.6C247.041 141.18 248.431 146.61 248.531 149.74L248.541 149.75Z"
            fill="#DCE7F5" />
        <path
            d="M252.621 138.56C252.621 138.56 253.191 138.98 253.901 138.92C253.901 138.68 253.911 138.46 253.941 138.27C253.471 138.22 252.881 138.27 252.621 138.56Z"
            fill="#872075" />
        <path
            d="M256.7 198.72C258.22 198.65 259.46 199.03 259.49 199.57C259.52 200.11 254.02 200.34 254 199.81C253.98 199.28 255.19 198.79 256.7 198.73V198.72Z"
            fill="#872075" />
        <path
            d="M248.891 198.87C250.411 198.8 251.651 199.18 251.681 199.72C251.711 200.26 246.211 200.49 246.191 199.96C246.171 199.43 247.381 198.94 248.891 198.88V198.87Z"
            fill="#872075" />
        <path
            d="M256.15 138.98C256.15 138.98 256.15 138.95 256.15 138.94C256.15 138.94 254.63 138.41 254.29 137.41C253.75 135.81 254.36 134.66 254.36 134.66H251.9C251.9 134.66 252.51 135.81 251.97 137.41C251.63 138.41 250.11 138.94 250.11 138.94C250.11 138.96 250.11 138.97 250.11 138.98C250.17 139.64 251.49 140.17 253.12 140.17C254.75 140.17 256.08 139.64 256.13 138.98H256.15Z"
            fill="#F49B1E" />
        <path
            d="M253.131 127.9C251.411 127.9 250.661 129.6 250.761 131.74C250.871 133.86 251.821 135.58 253.131 135.58C254.441 135.58 255.391 133.86 255.501 131.74C255.611 129.6 254.851 127.9 253.131 127.9Z"
            fill="#F49B1E" />
        <path d="M252.24 133.87C252.24 134.15 252.63 134.37 253.12 134.37C253.61 134.37 254 134.15 254 133.87H252.24Z"
            fill="#872075" />
        <path
            d="M255.28 131.81C255.19 132.16 255.28 132.49 255.51 132.55C255.74 132.61 255.98 132.37 256.08 132.03C256.17 131.68 256.081 131.35 255.851 131.29C255.631 131.23 255.38 131.47 255.28 131.81Z"
            fill="#F49B1E" />
        <path
            d="M251.351 132.09C250.901 131.74 251.441 131.11 251.891 131.14C252.341 131.1 252.881 131.73 252.431 132.09C252.131 131.93 252.051 132.09 251.891 132.14C251.731 132.08 251.651 131.93 251.351 132.09Z"
            fill="#872075" />
        <path
            d="M252.77 133.18C252.79 133.24 252.81 133.32 252.85 133.33C252.88 133.32 252.85 133.27 252.89 133.25C253.07 133.15 253.04 133.08 253.34 133.09C253.39 133.1 253.45 133.04 253.28 133.08C253.09 133.19 253.13 133.29 253.1 133.25C253.07 133.22 253.03 133.12 252.98 133.03C252.44 131.75 253.65 130.49 254.8 131.61C254.83 131.63 254.86 131.7 254.91 131.64C254.98 131.7 254.88 131.83 254.8 131.85C254.51 131.98 254.18 131.97 253.91 132.1C253.81 132.28 253.81 132.48 253.83 132.79L253.82 132.75C253.85 132.89 253.88 133.02 253.87 133.22C253.86 133.39 253.8 133.61 253.58 133.71C253.3 133.8 253.23 133.68 253.17 133.67C253.27 133.67 253.17 133.64 253.13 133.64C252.86 133.64 252.47 133.49 252.77 133.18Z"
            fill="#872075" />
        <path
            d="M250.321 132.37C250.461 132.7 250.741 132.9 250.951 132.81C251.161 132.72 251.221 132.38 251.081 132.05C250.941 131.72 250.661 131.52 250.451 131.61C250.241 131.7 250.181 132.04 250.321 132.37Z"
            fill="#F49B1E" />
        <path
            d="M252.45 127.05C249.54 127.1 250.45 131.61 250.45 131.61C250.45 131.61 251.8 131.71 253.2 130.1C254.6 128.49 254.71 128.19 254.55 127.61C254.39 127.03 253.38 126.95 252.45 127.05Z"
            fill="#872075" />
        <path
            d="M253.461 128.94C253.461 128.94 253.19 129.1 254.2 130.05C255.21 131 255.991 131.29 255.991 131.29C255.991 131.29 256.24 130.86 256.4 130.29C256.67 129.34 256.701 128.02 254.941 127.69C254.131 127.54 253.461 128.94 253.461 128.94Z"
            fill="#872075" />
        <path
            d="M254.46 137.72C254.92 137.71 255.55 137.64 255.86 138.11C256.02 138.56 255.97 138.94 255.87 139.36C255.06 142.27 250.29 141.9 250.66 138.65C250.66 138.18 251.24 137.95 251.62 137.99C251.46 138.17 251.3 138.48 251.4 138.65V138.51C252.33 139.81 253.87 139.52 254.78 138.45C254.87 138.32 254.86 138.36 254.92 138.51C254.97 138.59 254.96 138.56 254.98 138.58C254.98 138.33 254.63 138.04 254.46 137.72Z"
            fill="#A67CB5" />
        <path
            d="M249.181 144.29L248.191 146.41C248.191 146.41 247.991 144.57 248.581 143.17C248.301 143.22 247.931 143.23 247.121 143.17C246.311 143.11 246.491 143.14 246.491 143.14C246.491 143.14 247.241 139.56 247.591 139.59C247.941 139.62 249.171 139.24 249.171 139.24L249.621 141.57L249.171 144.29H249.181Z"
            fill="#DCE7F5" />
        <path
            d="M255.951 143.97L256.811 144.6L256.541 142.85C256.541 142.85 257.191 142.91 258.001 142.85C258.811 142.79 258.991 142.85 258.991 142.85C258.991 142.85 257.881 139.25 257.531 139.27C257.181 139.29 256.161 138.93 256.161 138.93L255.501 141.25L255.951 143.97Z"
            fill="#DCE7F5" />
        <path
            d="M76.1804 187.26C79.7604 187.1 82.7104 188 82.7704 189.26C82.8204 190.52 69.8505 191.08 69.8005 189.82C69.7505 188.56 72.6104 187.41 76.1904 187.26H76.1804Z"
            fill="#272453" />
        <path
            d="M49.04 187.15C51.42 187.32 53.27 188.48 53.18 189.74C53.09 191 44.48 190.37 44.57 189.11C44.66 187.85 46.66 186.98 49.04 187.15Z"
            fill="#272453" />
        <path opacity="0.2"
            d="M166.374 12.3616L163.786 9.77357C159.1 5.08727 151.502 5.08727 146.816 9.77357L144.227 12.3616C139.541 17.0479 139.541 24.6458 144.227 29.3321L146.816 31.9202C151.502 36.6064 159.1 36.6064 163.786 31.9202L166.374 29.3321C171.06 24.6458 171.06 17.0479 166.374 12.3616Z"
            fill="#A67CB5" />
        <path opacity="0.2"
            d="M307.172 127.332L306.38 126.54C302.803 122.963 297.003 122.963 293.426 126.54L292.634 127.332C289.057 130.909 289.057 136.709 292.634 140.286L293.426 141.078C297.003 144.656 302.803 144.656 306.38 141.078L307.172 140.286C310.75 136.709 310.75 130.909 307.172 127.332Z"
            fill="#A67CB5" />
        <g opacity="0.2">
            <path
                d="M241.991 59.71L240.911 56.63V59.71H239.641V54.52H241.301L242.441 57.75L243.571 54.52H245.221V59.71H243.941V56.63L242.871 59.71H241.991Z"
                fill="#00A298" />
            <path
                d="M247.701 59.8C246.551 59.8 245.761 58.99 245.761 57.81C245.761 56.63 246.551 55.82 247.701 55.82C248.851 55.82 249.641 56.63 249.641 57.81C249.641 58.99 248.851 59.8 247.701 59.8ZM247.701 56.92C247.291 56.92 247.071 57.29 247.071 57.82C247.071 58.35 247.301 58.71 247.701 58.71C248.101 58.71 248.341 58.35 248.341 57.82C248.341 57.29 248.111 56.92 247.701 56.92Z"
                fill="#00A298" />
            <path
                d="M250.17 55.91H251.5V56.24C251.71 56 252.08 55.83 252.52 55.83C253.36 55.83 253.86 56.38 253.86 57.22V59.71H252.54V57.54C252.54 57.23 252.38 57 252.04 57C251.78 57 251.56 57.15 251.49 57.41V59.71H250.16V55.91H250.17Z"
                fill="#00A298" />
            <path
                d="M259.761 58.39C259.621 59.27 258.971 59.8 257.981 59.8C256.811 59.8 256.051 59 256.051 57.81C256.051 56.62 256.861 55.82 257.961 55.82C259.131 55.82 259.791 56.6 259.791 57.73V58.06H257.331C257.371 58.52 257.611 58.76 257.991 58.76C258.261 58.76 258.471 58.64 258.551 58.38H259.781L259.761 58.39ZM257.341 55.49L258.031 54.22H259.291L258.551 55.49H257.331H257.341ZM257.341 57.41H258.491C258.471 57.1 258.281 56.86 257.951 56.86C257.621 56.86 257.431 57.05 257.341 57.41Z"
                fill="#00A298" />
            <path
                d="M261.281 59.71L259.841 55.91H261.191L261.921 58.09L262.631 55.91H263.931L262.481 59.71H261.291H261.281Z"
                fill="#00A298" />
            <path
                d="M265.911 59.8C264.761 59.8 263.971 58.99 263.971 57.81C263.971 56.63 264.761 55.82 265.911 55.82C267.061 55.82 267.851 56.63 267.851 57.81C267.851 58.99 267.061 59.8 265.911 59.8ZM265.911 56.92C265.501 56.92 265.281 57.29 265.281 57.82C265.281 58.35 265.511 58.71 265.911 58.71C266.311 58.71 266.551 58.35 266.551 57.82C266.551 57.29 266.321 56.92 265.911 56.92Z"
                fill="#00A298" />
            <path d="M269.701 59.71H268.371V54.22H269.701V59.71Z" fill="#00A298" />
            <path
                d="M274.08 59.71H272.75V59.38C272.55 59.62 272.17 59.79 271.74 59.79C270.9 59.79 270.4 59.24 270.4 58.4V55.91H271.72V58.09C271.72 58.41 271.87 58.64 272.21 58.64C272.45 58.64 272.68 58.48 272.75 58.22V55.91H274.08V59.71Z"
                fill="#00A298" />
            <path
                d="M275.071 56.94H274.511V55.91H275.071V54.86H276.381V55.91H277.171V56.94H276.381V58.21C276.381 58.51 276.521 58.63 276.791 58.63C276.931 58.63 277.091 58.6 277.211 58.55V59.67C277.061 59.74 276.771 59.79 276.481 59.79C275.581 59.79 275.081 59.37 275.081 58.4V56.94H275.071Z"
                fill="#00A298" />
            <path
                d="M278.49 55.59C278.08 55.59 277.74 55.31 277.74 54.88C277.74 54.45 278.09 54.16 278.49 54.16C278.89 54.16 279.24 54.44 279.24 54.88C279.24 55.32 278.89 55.59 278.49 55.59ZM279.15 59.71H277.82V55.91H279.15V59.71Z"
                fill="#00A298" />
            <path
                d="M281.6 59.8C280.45 59.8 279.66 58.99 279.66 57.81C279.66 56.63 280.45 55.82 281.6 55.82C282.75 55.82 283.54 56.63 283.54 57.81C283.54 58.99 282.75 59.8 281.6 59.8ZM281.6 56.92C281.19 56.92 280.97 57.29 280.97 57.82C280.97 58.35 281.2 58.71 281.6 58.71C282 58.71 282.24 58.35 282.24 57.82C282.24 57.29 282.01 56.92 281.6 56.92Z"
                fill="#00A298" />
            <path
                d="M284.071 55.91H285.401V56.24C285.611 56 285.981 55.83 286.421 55.83C287.261 55.83 287.761 56.38 287.761 57.22V59.71H286.441V57.54C286.441 57.23 286.281 57 285.941 57C285.681 57 285.461 57.15 285.391 57.41V59.71H284.061V55.91H284.071Z"
                fill="#00A298" />
        </g>
        <path d="M112.17 166.47L126.01 162.59H159.96L188.28 156.38H284.3" stroke="#00A298" stroke-width="2"
            stroke-miterlimit="10" stroke-linecap="round" />
        <path opacity="0.1" d="M284.271 155.98H188.251L159.931 162.19H125.971L112.141 166.07V171.75H284.271V155.98Z"
            fill="#00A298" stroke="#00A298" stroke-width="2" stroke-miterlimit="10" stroke-linecap="round" />
        <path
            d="M248.953 97.7394L248.621 97.4071C247.129 95.9153 244.711 95.9153 243.219 97.4071L242.886 97.7394C241.395 99.2312 241.395 101.65 242.886 103.142L243.219 103.474C244.711 104.966 247.129 104.966 248.621 103.474L248.953 103.142C250.445 101.65 250.445 99.2312 248.953 97.7394Z"
            fill="#F49B1E" />
        <path
            d="M231.03 100.79C230.87 100.98 230.84 101.09 230.83 101.19H229.75C229.75 100.94 229.83 100.78 230.09 100.45C230.34 100.14 230.58 99.95 230.58 99.67C230.58 99.43 230.42 99.28 230.19 99.28C229.93 99.28 229.79 99.48 229.77 99.7H228.65C228.73 98.91 229.27 98.28 230.23 98.28C231.12 98.28 231.71 98.77 231.71 99.56C231.71 100.08 231.32 100.42 231.03 100.78V100.79ZM230.27 101.44C230.64 101.44 230.93 101.7 230.93 102.05C230.93 102.4 230.64 102.67 230.27 102.67C229.9 102.67 229.62 102.41 229.62 102.05C229.62 101.69 229.9 101.44 230.27 101.44Z"
            fill="white" />
        <path
            d="M248.956 70.4071L248.624 70.0748C247.132 68.583 244.714 68.583 243.222 70.0748L242.889 70.4071C241.398 71.8989 241.398 74.3176 242.889 75.8094L243.222 76.1418C244.714 77.6336 247.132 77.6336 248.624 76.1418L248.956 75.8094C250.448 74.3176 250.448 71.8989 248.956 70.4071Z"
            fill="#F49B1E" />
        <path
            d="M246.79 73.45C246.63 73.64 246.6 73.75 246.59 73.85H245.51C245.51 73.6 245.59 73.44 245.85 73.11C246.1 72.8 246.34 72.61 246.34 72.33C246.34 72.09 246.18 71.94 245.95 71.94C245.69 71.94 245.55 72.14 245.53 72.36H244.41C244.49 71.57 245.03 70.94 245.99 70.94C246.88 70.94 247.47 71.43 247.47 72.22C247.47 72.74 247.08 73.08 246.79 73.44V73.45ZM246.03 74.1C246.4 74.1 246.69 74.36 246.69 74.71C246.69 75.06 246.4 75.33 246.03 75.33C245.66 75.33 245.38 75.07 245.38 74.71C245.38 74.35 245.66 74.1 246.03 74.1Z"
            fill="white" />
        <path
            d="M248.962 128.531L248.63 128.199C247.138 126.707 244.719 126.707 243.228 128.199L242.895 128.531C241.403 130.023 241.403 132.442 242.895 133.934L243.228 134.266C244.719 135.758 247.138 135.758 248.63 134.266L248.962 133.934C250.454 132.442 250.454 130.023 248.962 128.531Z"
            fill="#F49B1E" />
        <path
            d="M246.79 131.58C246.63 131.77 246.6 131.88 246.59 131.98H245.51C245.51 131.73 245.59 131.57 245.85 131.24C246.1 130.93 246.34 130.74 246.34 130.46C246.34 130.22 246.18 130.07 245.95 130.07C245.69 130.07 245.55 130.27 245.53 130.49H244.41C244.49 129.7 245.03 129.07 245.99 129.07C246.88 129.07 247.47 129.56 247.47 130.35C247.47 130.87 247.08 131.21 246.79 131.57V131.58ZM246.03 132.23C246.4 132.23 246.69 132.49 246.69 132.84C246.69 133.19 246.4 133.46 246.03 133.46C245.66 133.46 245.38 133.2 245.38 132.84C245.38 132.48 245.66 132.23 246.03 132.23Z"
            fill="white" />
        <path opacity="0.1"
            d="M170.701 100.16C179.432 100.16 186.511 93.0816 186.511 84.35C186.511 75.6184 179.432 68.54 170.701 68.54C161.969 68.54 154.891 75.6184 154.891 84.35C154.891 93.0816 161.969 100.16 170.701 100.16Z"
            fill="#272453" />
        <path opacity="0.1"
            d="M229.761 55.64H108.921C107.844 55.64 106.971 56.513 106.971 57.59V57.83C106.971 58.907 107.844 59.78 108.921 59.78H229.761C230.838 59.78 231.711 58.907 231.711 57.83V57.59C231.711 56.513 230.838 55.64 229.761 55.64Z"
            fill="#272453" />
        <path
            d="M159.061 55.64H108.921C107.844 55.64 106.971 56.513 106.971 57.59V57.83C106.971 58.907 107.844 59.78 108.921 59.78H159.061C160.138 59.78 161.011 58.907 161.011 57.83V57.59C161.011 56.513 160.138 55.64 159.061 55.64Z"
            fill="#00A298" />
        <path
            d="M207.931 109.57H138.921C137.844 109.57 136.971 110.443 136.971 111.52V111.76C136.971 112.837 137.844 113.71 138.921 113.71H207.931C209.008 113.71 209.881 112.837 209.881 111.76V111.52C209.881 110.443 209.008 109.57 207.931 109.57Z"
            fill="#00A298" />
        <path
            d="M128.33 112.21C128.02 114.36 126 115.85 123.86 115.54C121.71 115.23 120.22 113.21 120.53 111.07C120.84 108.92 122.86 107.43 125 107.74C125.6 107.83 126.14 108.05 126.62 108.36"
            stroke="#00A298" stroke-width="2" stroke-linecap="round" stroke-linejoin="round" />
        <path
            d="M207.931 121.81H138.921C137.844 121.81 136.971 122.683 136.971 123.76V124C136.971 125.077 137.844 125.95 138.921 125.95H207.931C209.008 125.95 209.881 125.077 209.881 124V123.76C209.881 122.683 209.008 121.81 207.931 121.81Z"
            fill="#00A298" />
        <path
            d="M207.931 134.48H138.921C137.844 134.48 136.971 135.353 136.971 136.43V136.67C136.971 137.747 137.844 138.62 138.921 138.62H207.931C209.008 138.62 209.881 137.747 209.881 136.67V136.43C209.881 135.353 209.008 134.48 207.931 134.48Z"
            fill="#00A298" />
        <path d="M295.591 39.87H102.051V51.75H295.591V39.87Z" fill="#00A298" />
        <path
            d="M116.801 42.93H108.281C106.751 42.93 105.511 44.1702 105.511 45.7V46.03C105.511 47.5598 106.751 48.8 108.281 48.8H116.801C118.331 48.8 119.571 47.5598 119.571 46.03V45.7C119.571 44.1702 118.331 42.93 116.801 42.93Z"
            fill="white" />
        <path
            d="M208.36 44.1H196.05C195.167 44.1 194.45 44.8163 194.45 45.7V45.89C194.45 46.7736 195.167 47.49 196.05 47.49H208.36C209.244 47.49 209.96 46.7736 209.96 45.89V45.7C209.96 44.8163 209.244 44.1 208.36 44.1Z"
            fill="white" />
        <path
            d="M227.94 44.1H215.63C214.747 44.1 214.03 44.8163 214.03 45.7V45.89C214.03 46.7736 214.747 47.49 215.63 47.49H227.94C228.824 47.49 229.54 46.7736 229.54 45.89V45.7C229.54 44.8163 228.824 44.1 227.94 44.1Z"
            fill="white" />
        <path
            d="M247.53 44.1H235.22C234.336 44.1 233.62 44.8163 233.62 45.7V45.89C233.62 46.7736 234.336 47.49 235.22 47.49H247.53C248.414 47.49 249.13 46.7736 249.13 45.89V45.7C249.13 44.8163 248.414 44.1 247.53 44.1Z"
            fill="white" />
        <path
            d="M267.11 44.1H254.8C253.917 44.1 253.2 44.8163 253.2 45.7V45.89C253.2 46.7736 253.917 47.49 254.8 47.49H267.11C267.994 47.49 268.71 46.7736 268.71 45.89V45.7C268.71 44.8163 267.994 44.1 267.11 44.1Z"
            fill="white" />
        <path
            d="M286.16 44.1H273.85C272.966 44.1 272.25 44.8163 272.25 45.7V45.89C272.25 46.7736 272.966 47.49 273.85 47.49H286.16C287.044 47.49 287.76 46.7736 287.76 45.89V45.7C287.76 44.8163 287.044 44.1 286.16 44.1Z"
            fill="white" />
        <path d="M122.49 111.2L124.43 112.94L128.81 108.98" stroke="#00A298" stroke-width="2" stroke-linecap="round"
            stroke-linejoin="round" />
        <path
            d="M128.33 124.45C128.02 126.6 126 128.09 123.86 127.78C121.71 127.47 120.22 125.45 120.53 123.31C120.84 121.16 122.86 119.67 125 119.98C125.6 120.07 126.14 120.29 126.62 120.6"
            stroke="#00A298" stroke-width="2" stroke-linecap="round" stroke-linejoin="round" />
        <path d="M122.49 123.43L124.43 125.18L128.81 121.22" stroke="#00A298" stroke-width="2" stroke-linecap="round"
            stroke-linejoin="round" />
        <path
            d="M128.33 136.69C128.02 138.84 126 140.33 123.86 140.02C121.71 139.71 120.22 137.69 120.53 135.55C120.84 133.4 122.86 131.91 125 132.22C125.6 132.31 126.14 132.53 126.62 132.84"
            stroke="#00A298" stroke-width="2" stroke-linecap="round" stroke-linejoin="round" />
        <path d="M122.49 135.67L124.43 137.42L128.81 133.45" stroke="#00A298" stroke-width="2" stroke-linecap="round"
            stroke-linejoin="round" />
        <path
            d="M227.24 165.85L228.77 165.45C229.07 165.37 229.22 165.05 229.09 164.72C228.96 164.4 228.61 164.2 228.31 164.28L226.78 164.68C226.48 164.76 226.33 165.08 226.46 165.41C226.59 165.73 226.94 165.93 227.24 165.85Z"
            fill="white" />
        <path
            d="M232.72 155.6C221.48 154.54 210.82 146.91 209.17 149.94C207.52 152.97 215.64 157.21 227 163.37C238.36 169.53 253.66 174.35 253.66 174.35C253.66 174.35 254.91 157.69 232.72 155.6Z"
            fill="#F9AF1C" />
        <path
            d="M206.831 147.49C201.121 145.81 196.061 145.91 195.531 147.71C195.001 149.51 215.661 155.62 216.201 153.81C216.741 152 212.541 149.17 206.831 147.49Z"
            fill="#F9AF1C" />
        <path
            d="M247.561 125.77C252.951 123.94 257.141 128.45 259.091 135.28C261.021 142.03 259.861 148.46 255.761 149.85C251.661 151.25 246.821 146.87 244.231 140.34C241.611 133.73 242.171 127.6 247.561 125.77Z"
            fill="#F49B1E" />
        <path fill-rule="evenodd" clip-rule="evenodd"
            d="M272.57 197.87C282.57 217.85 286.95 228.96 280.76 246.17C277.75 253.15 266.37 250.86 255.39 250.82C244.07 250.78 234.27 252.18 230.17 245.16C228.01 241.46 226.99 232.88 229.12 226.06C230.48 221.72 236.92 217.02 238.09 211.86L243.54 208.91L257.62 206.43L272.57 197.87Z"
            fill="#DCE7F5" />
        <path fill-rule="evenodd" clip-rule="evenodd"
            d="M278.08 171.95C276.31 182.11 279.7 207.55 280.86 217.92C254.09 229.75 247.42 210.05 236.44 216.77C242.3 199.7 248.39 205.15 242.09 165.88C240.17 153.9 260.19 145.23 272.91 157.28C276.56 160.74 277.9 166.12 278.08 171.96V171.95Z"
            fill="#DCE7F5" />
        <path fill-rule="evenodd" clip-rule="evenodd"
            d="M256.01 123.07C263.2 119.39 267.32 122.38 270.73 127.5C274.35 132.94 274.94 135.82 277.24 137.77C281.15 141.07 285.79 139.93 295.46 139.75C312.51 139.42 314.77 155.31 310.86 167.12C306.22 181.13 290.42 191.61 277.44 194.52C261.39 198.12 255.81 190.81 254.59 181.48C253.49 173.05 259.97 165.09 253.94 159.54C250.81 156.67 247.93 156.84 247.54 151.14C247.25 146.81 250.7 140.97 249.35 134.89C248.29 135 247.25 134.97 246.32 134.79C236.35 132.8 238.97 117.55 249.88 119.93C252.02 120.4 254.35 121.49 256.01 123.06V123.07Z"
            fill="#872075" />
        <path fill-rule="evenodd" clip-rule="evenodd"
            d="M298.251 184.22C291.891 189.36 284.281 192.99 277.441 194.52C261.391 198.12 255.811 190.81 254.591 181.48C253.491 173.05 259.971 165.09 253.941 159.54C250.811 156.67 247.931 156.84 247.541 151.14C247.251 146.81 250.701 140.97 249.351 134.89C248.291 135 247.251 134.97 246.321 134.79C241.851 133.9 239.911 130.33 240.121 126.89C242.791 131.91 246.511 132.97 252.311 132.4C254.211 140.29 252.791 145.82 255.411 150.23C259.591 157.27 263.681 153.3 266.331 162.12C269.101 171.34 265.771 177.27 270.471 184.07C275.991 192.06 290.401 187.04 298.251 184.21V184.22Z"
            fill="#872075" />
        <path d="M244.86 141.62L242.12 141.39L243.65 137.64L244.86 141.62Z" fill="#F49B1E" />
        <path
            d="M245.12 140.69C245.31 141.05 245.42 141.74 244.87 141.92C244.3 142.1 243.75 141.86 243.22 141.81C242.89 141.81 242.49 142.12 241.89 141.78C240.84 141.02 241.54 139.57 241.86 138.71C242.01 137.81 242.59 136.15 242.59 134.96C242.58 134.55 242.54 134.1 242.23 133.62C242.82 133.6 243.4 134.02 243.72 134.54C244.69 136.03 244.25 138.04 243.51 139.45C243.25 139.91 242.98 140.4 242.84 140.79C242.84 140.81 242.78 140.66 242.67 140.62C242.46 140.57 242.68 140.68 242.93 140.65C243.25 140.64 243.39 140.72 243.53 140.77C244.32 141.06 245 142.03 245.12 140.69Z"
            fill="#872075" />
        <path
            d="M240.591 206.66C238.981 214.7 231.551 221.85 234.161 223.26C236.771 224.67 241.011 219.12 247.171 211.36C253.331 203.6 258.531 192.9 258.531 192.9C258.531 192.9 243.761 190.78 240.591 206.66Z"
            fill="#F9AF1C" />
    </g>
    <defs>
        <clipPath id="clip0_1771_7658">
            <rect width="348" height="210" fill="white" />
        </clipPath>
    </defs>
</svg>